#!OML:ASF E:/inclinewalkrobotboard/Project1/Captureday1/Session1/subject1.ASF
:FULLY-SPECIFIED
:DEGREES
326
root 0 0 0 -1.1414185652247284 -2.852664630696523 -0.8531898317936997
lowerback 10.956563058655723 0.5644407303535095 0.4644600251785246
upperback -1.1403818770068281 0.8818182420481968 0.9008438523580737
thorax -7.326891028879235 0.40619376326322604 0.4382573333188565
lowerneck -13.343330388056728 -1.383314994419083 0.2515367906019445
upperneck 19.04499955143091 -1.3685225250365571 -2.400461551804246
head 8.20090790020259 -0.7935568940319594 -1.0229050103349617
rclavicle -4.54738669469408E-16 -2.4060758299909713E-16
rhumerus -11.4845500144976 -6.577025077707983 -67.09538715364832
rradius 43.227562887590345
rwrist 12.152444559546108
rhand -23.70046777800389 -6.007745623367214
rfingers 7.1250200000001325
rthumb 3.001745024292756 -36.1585536457492
lclavicle -9.52967037321673E-16 -8.171951107395713E-16
lhumerus -11.350025654864627 -4.359972092166575 67.95588325263972
lradius 44.50550573621666
lwrist -5.654499688690736
lhand -33.67158650306479 -12.648096211590175
lfingers 7.125020000000125
lthumb -6.951433223194359 16.42004469192722
rfemur -29.158474090802287 0.215567378960273 18.323721496772805
rtibia 61.644671088988076
rfoot 4.504148627015432 -6.614423517040558
rtoes 6.453045053651519
lfemur 15.313275075995469 -4.1976669931078465 -30.75464300027794
ltibia 16.21206993500716
lfoot -13.736825962257113 -3.780396528483297
ltoes -4.34359174130411
327
root 0 0 0 -1.1371456000182527 -2.85348896045933 -0.8489275416374331
lowerback 10.958039488067254 0.5647160569082031 0.46268234103555494
upperback -1.145343307032278 0.8819073063683395 0.8986216019193273
thorax -7.333718177590919 0.40634214651616796 0.4364722469120501
lowerneck -13.33144928581604 -1.3784706952615797 0.25849344625959986
upperneck 19.044038222892272 -1.3616068983006797 -2.410354369977993
head 8.198754760539535 -0.7904992765541758 -1.0265377231537702
rclavicle -4.546778584286647E-16 -2.4763957788112355E-16
rhumerus -11.369429961342684 -6.501483358561375 -67.02363734463361
rradius 43.33697004787636
rwrist 12.207523729647503
rhand -23.73902923871936 -6.197553644520864
rfingers 7.125020000000132
rthumb 2.962613462096454 -36.34675625325976
lclavicle -9.455969417194809E-16 -8.2096708331459E-16
lhumerus -11.075673525282806 -4.426946422067372 67.76013509645888
lradius 44.72472970915478
lwrist -5.804072109515162
lhand -33.76620020950616 -13.152277817360348
lfingers 7.125020000000124
lthumb -7.0416978648310815 15.921710129569284
rfemur -31.0899090005329 0.5831303654997142 17.794354033236207
rtibia 57.8049709674712
rfoot 3.5443342710494044 -7.449024459116927
rtoes 5.312028952195455
lfemur 16.73599577918865 -3.8785136936321254 -31.01608539004123
ltibia 18.64006239182606
lfoot -12.926088819470747 -5.063344018913268
ltoes -5.115106762037337
328
root 0 0 0 -1.1351336823692708 -2.8537734113084654 -0.8470419012869599
lowerback 10.958665997013375 0.5647523508544647 0.46167013996937767
upperback -1.1474937095193363 0.8818877200100169 0.8976879640369926
thorax -7.3368591864303125 0.40638083026328337 0.4357321198645945
lowerneck -13.325861798476819 -1.3762963507606436 0.2617061990247231
upperneck 19.04335179243708 -1.3587228299465632 -2.41498282139218
head 8.197749766284204 -0.7891619783211684 -1.0282237517629265
rclavicle -4.55074758336058E-16 -2.5296766364509557E-16
rhumerus -11.286357820127511 -6.447355981169516 -66.97182662044489
rradius 43.415763005387674
rwrist 12.247356090120196
rhand -23.76678600288264 -6.334413206706014
rfingers 7.125020000000132
rthumb 2.9345066562239683 -36.482869521891104
lclavicle -9.389027254915819E-16 -8.238548936701819E-16
lhumerus -10.851527363422829 -4.48185490491586 67.60020615487085
lradius 44.9034854420579
lwrist -5.9258511573505235
lhand -33.84372845249168 -13.564947044125113
lfingers 7.125020000000123
lthumb -7.115548547780655 15.515328322480865
rfemur -32.278610718389885 1.0883861766602374 17.59273468542554
rtibia 53.539111585798636
rfoot 2.3311196109336123 -8.176552444925719
rtoes 4.238809500704357
lfemur 17.95084842309521 -3.551055797509006 -31.181174857473717
ltibia 21.18526648321805
lfoot -12.01436049361015 -6.347389934229344
ltoes -5.855458733370085
329
root 0 0 0 -1.1354833194185745 -2.8534900147303657 -0.8476550885377205
lowerback 10.9584095027971 0.5645467936462611 0.4614765925467383
upperback -1.1467038864504562 0.8817537799286514 0.8980907213894624
thorax -7.336130597390149 0.4063081480767824 0.43608044446108696
lowerneck -13.32688745836493 -1.3769158130845427 0.26098908621844447
upperneck 19.042997072833547 -1.3600214063522995 -2.4140932978433667
head 8.197955863956379 -0.7896227365420886 -1.0278709641582395
rclavicle -4.557209058665239E-16 -2.56348768542244E-16
rhumerus -11.240462733077443 -6.4179635367175605 -66.94312915704337
rradius 43.4591954584512
rwrist 12.269503285515833
rhand -23.78205841068107 -6.410041479097897
rfingers 7.125020000000132
rthumb 2.9190933414934994 -36.558722478593396
lclavicle -9.333290382795106E-16 -8.256951392787169E-16
lhumerus -10.693752229653175 -4.5207019076233665 67.48770060294859
lradius 45.02908012250434
lwrist -6.011228379432686
lhand -33.898487951997126 -13.856383732761563
lfingers 7.125020000000123
lthumb -7.167614629708055 15.229990133452587
rfemur -32.61790823068668 1.7364133066545067 17.76266314903647
rtibia 48.872417445773536
rfoot 0.8440188462404201 -8.772363140522598
rtoes 3.247998768519837
lfemur 18.833309217368488 -3.230116910485791 -31.2251413912568
ltibia 23.722857383627073
lfoot -11.044037102794809 -7.552129534865183
ltoes -6.497977910059383
330
root 0 0 0 -1.1382237062451634 -2.8526276349071065 -0.8508060345115127
lowerback 10.957265150038387 0.5641063904414259 0.4621545945214155
upperback -1.1429339060848402 0.8815081663104182 0.8998329157682325
thorax -7.331460527690561 0.406124701506066 0.43752809970870643
lowerneck -13.334660227550874 -1.3803736407905385 0.2562773601128942
upperneck 19.043012480998318 -1.3655361913696322 -2.407577251955916
head 8.1993949760622 -0.7919098177768298 -1.0254395887678505
rclavicle -4.564506140325677E-16 -2.5760648041052637E-16
rhumerus -11.235457341258883 -6.4156186502062695 -66.93982378796194
rradius 43.463804220881755
rwrist 12.27217829693484
rhand -23.783627961967774 -6.418408143026678
rfingers 7.125020000000132
rthumb 2.917587256632417 -36.568324637137785
lclavicle -9.295262993915735E-16 -8.263867967251918E-16
lhumerus -10.619129861980683 -4.539330443930259 67.43468131206124
lradius 45.08832637650641
lwrist -6.051223422666202
lhand -33.92457814508961 -13.995580062993392
lfingers 7.125020000000122
lthumb -7.1922890117704075 15.095895025806065
rfemur -31.897413702675482 2.5508534241396634 18.394711253378006
rtibia 43.764602369180494
rfoot -0.9834058707013966 -9.199408519094836
rtoes 2.357481568215083
lfemur 19.29657841757991 -2.9267478210747875 -31.122843916931583
ltibia 26.168521385459304
lfoot -10.035490488765815 -8.624127056638471
ltoes -7.00787070968312
331
root 0 0 0 -1.1434404620691958 -2.851159702737627 -0.856588991479615
lowerback 10.955205355732168 0.563431570234859 0.46378956118330017
upperback -1.1360702103554945 0.881148305672644 0.9029510445713558
thorax -7.322687781845682 0.4058265545776985 0.44011125390972394
lowerneck -13.349485528910158 -1.386788716132918 0.24742229231581708
upperneck 19.043428824921197 -1.3754261611918492 -2.395179835978609
head 8.202114096192652 -0.7961026229800763 -1.0208337641585048
rclavicle -4.571776471439398E-16 -2.564855394013926E-16
rhumerus -11.275980882417107 -6.443269208655412 -66.96479313456956
rradius 43.42511113100319
rwrist 12.253127590713552
rhand -23.769925919709294 -6.351899789863213
rfingers 7.125020000000132
rthumb 2.9315613518853514 -36.50397771524604
lclavicle -9.282785551848952E-16 -8.258947377843875E-16
lhumerus -10.64593278576584 -4.533239425559109 67.45430844506431
lradius 45.06675802580296
lwrist -6.035968211059015
lhand -33.915594032330866 -13.948655817919981
lfingers 7.125020000000122
lthumb -7.183476838222095 15.146183467368262
rfemur -29.743765625460618 3.5811394577934603 19.653858072058252
rtibia 38.09888045311734
rfoot -3.2849114637639207 -9.397270245426462
rtoes 1.597212235956844
lfemur 19.28967316424916 -2.639520988829329 -30.840901221965737
ltibia 28.551823575588546
lfoot -8.952312289218924 -9.56578605688487
ltoes -7.388007370127134
